<svg width="48" height="48" viewBox="0 0 48 48" fill="none" xmlns="http://www.w3.org/2000/svg">
<path fill-rule="evenodd" clip-rule="evenodd" d="M26.07 10.3007C26.6707 8.28317 28.32 5.44817 32.7803 5.44817V3.53267C27.81 3.53267 25.4107 6.14117 24.3982 8.80817C24.6307 6.91892 24.7762 4.66442 24.324 3.67592C23.4795 1.82642 21.2528 0.994669 19.3507 1.81742C17.4518 2.64017 16.596 4.80617 17.442 6.65567C17.8223 7.48817 19.1737 8.61617 20.5448 9.60767C13.6252 6.65867 2.25 8.67692 2.25 21.9879C2.25 32.0604 14.0857 46.5002 19.251 46.5002C21.5947 46.5002 22.4385 45.0339 23.7983 45.0339C25.1813 45.0339 25.6267 46.4972 28.6252 46.4972C33.7943 46.4972 45.75 32.1069 45.75 21.9879C45.75 7.74242 32.7225 6.43067 26.07 10.3007Z" fill="#64151B"/>
</svg>
