<svg width="48" height="48" viewBox="0 0 48 48" fill="none" xmlns="http://www.w3.org/2000/svg">
<path fill-rule="evenodd" clip-rule="evenodd" d="M11 6C10.4696 6 9.96086 6.21071 9.58579 6.58579C9.21071 6.96086 9 7.46957 9 8C9 8.53043 9.21071 9.03914 9.58579 9.41421C9.96086 9.78929 10.4696 10 11 10H14V14.666C13.9999 15.9134 14.3886 17.1298 15.112 18.146L18.252 23.774C18.2962 23.8526 18.3456 23.9281 18.4 24C18.3463 24.072 18.2975 24.1475 18.254 24.226L15.114 29.854C14.3899 30.87 14.0005 32.0864 14 33.334V38H11C10.4696 38 9.96086 38.2107 9.58579 38.5858C9.21071 38.9609 9 39.4696 9 40C9 40.5304 9.21071 41.0391 9.58579 41.4142C9.96086 41.7893 10.4696 42 11 42H37C37.5304 42 38.0391 41.7893 38.4142 41.4142C38.7893 41.0391 39 40.5304 39 40C39 39.4696 38.7893 38.9609 38.4142 38.5858C38.0391 38.2107 37.5304 38 37 38H34V33.334C33.9998 32.0823 33.6082 30.862 32.88 29.844L29.648 24.204C29.6075 24.1333 29.5628 24.0652 29.514 24C29.5628 23.9341 29.6076 23.8653 29.648 23.794L32.88 18.156C33.6082 17.138 33.9998 15.9177 34 14.666V10H37C37.5304 10 38.0391 9.78929 38.4142 9.41421C38.7893 9.03914 39 8.53043 39 8C39 7.46957 38.7893 6.96086 38.4142 6.58579C38.0391 6.21071 37.5304 6 37 6H11Z" fill="#64151B"/>
</svg>
