<svg width="49" height="48" viewBox="0 0 49 48" fill="none" xmlns="http://www.w3.org/2000/svg">
<path d="M36.75 32C36.75 38.62 31.2579 44 24.5 44C17.7421 44 12.25 38.62 12.25 32C12.25 26 16.3333 26 16.3333 20C16.3333 17.12 17.8646 14.44 20.4167 13C21.2333 12.54 22.0908 12.24 22.9688 12.08V10C22.9688 9.26 22.8054 8.84 22.5196 8.56C22.2542 8.28 21.7029 8 20.4167 8V5C22.2133 5 23.6833 5.46 24.6838 6.44C25.6842 7.42 26.0313 8.76 26.0313 10V12.08C26.9092 12.24 27.7871 12.54 28.5833 13C31.1354 14.44 32.6667 17.12 32.6667 20C32.6667 26 36.75 26 36.75 32Z" fill="#64151B"/>
</svg>
