<svg width="24" height="24" viewBox="0 0 24 24" fill="none" xmlns="http://www.w3.org/2000/svg">
<path d="M9.53597 6.91C9.53597 5.855 10.486 5 11.66 5C12.833 5 13.784 5.855 13.784 6.91C13.784 7.405 13.604 7.857 13.292 8.197C12.695 8.847 11.802 9.502 11.802 10.346V10.63M11.802 10.63C12.5417 10.618 13.2677 10.8307 13.884 11.24L21.317 16.25C22.623 17.131 21.93 19 20.297 19H3.70297C2.08697 19 1.38297 17.165 2.65497 16.27L9.75097 11.279C10.3533 10.8609 11.0678 10.6343 11.801 10.629L11.802 10.63Z" stroke="#0D0102" stroke-width="1.5" stroke-linecap="round"/>
</svg>
